<svg width="20" height="57" viewBox="0 0 20 57" fill="none" xmlns="http://www.w3.org/2000/svg">
<g clip-path="url(#clip0_206_60)">
<path d="M16.3914 56.4133L15.9523 56.2767L15.3083 56.2132L14.0009 55.9693L13.5325 55.8327L12.9568 55.5449L11.8981 55.2717L11.5322 55.0228L11.1712 54.8179L10.4833 54.5496L9.88812 54.0959L9.37586 53.7934L8.9319 53.5251L8.46355 53.2324L8.23913 52.9299L7.66344 52.5542L6.75601 51.7248L6.29741 51.1638L5.82417 50.6808L5.45827 50.1344L4.93625 49.5002L4.73623 48.8806L4.46302 48.4708L4.09224 47.9048L3.88734 47.3974L3.68731 47.0998L3.62876 46.612L3.30189 46.1436L3.2092 45.4509L2.88233 44.8605V44.5922L2.76036 44.1141L2.55057 43.5726L2.39933 42.9139L2.17492 42.1919L2.05783 41.7235L1.95537 40.9039L1.67241 40.3673L1.71632 39.7086L1.50166 39.0159L1.43335 38.8402L1.51141 38.6646L1.35042 38.0157L1.24309 36.9375L1.07721 35.9716L1.02354 35.0641L0.916213 34.2201L0.886941 33.8737L0.760095 33.3371L0.789367 32.7955L0.701551 32.1369L0.716187 31.1758L0.638128 30.6831L0.525918 29.5366L0.540554 29.1755L0.564947 28.7072L0.550311 27.7217L0.472252 26.8679L0.535675 26.1556L0.413708 25.6483L0.399072 25.1165V24.4042L0.408829 23.8041L0.452737 23.326L0.384436 22.4137V21.3794L0.364921 20.9159L0.281983 20.35L0.355164 19.7548L0.296619 19.1645L0.208803 18.2473L0.164895 17.6423V17.0666L-0.00585938 16.5495L0.174652 16.1543L0.00877669 15.3396C0.111229 14.9444 0.135623 14.6273 0.120987 14.2516L0.18441 13.3881L0.208803 12.2514L0.33077 11.783L0.277105 11.3488L0.44298 10.3731L0.662521 9.9779L0.711308 9.44612L1.02842 8.86068L1.37969 8.12888L1.61874 7.71419L2.14564 7.06532L2.41885 6.72869L3.49704 6.06519L4.29715 5.69929L4.96065 5.43584L5.3607 5.41145L5.96078 5.30899C6.35595 5.19191 6.57061 4.92846 6.62428 4.53816L6.58525 3.94784L6.35107 3.32825L6.30229 3.01113L5.78515 2.12321C5.68757 1.85976 5.51682 1.55728 5.28752 1.32311L4.80453 0.537637C4.93138 0.269309 5.26313 0.0448889 5.60463 0.00585938L6.14617 0.557151L6.3901 0.93281C6.60477 1.20114 6.77064 1.51825 6.87309 1.84025L7.16094 2.45496L7.44878 3.09407C7.47317 3.25995 7.55123 3.51364 7.63417 3.7283L7.74638 4.55768C7.66344 4.90894 7.9708 5.21142 8.31231 5.2163L8.82945 5.2846L9.43441 5.46511L9.96618 5.6749L10.5077 5.79199L10.8395 6.06519L11.4591 6.38719L11.7664 6.63112L12.347 7.12387L12.7178 7.55807C12.8397 7.76298 12.9471 7.87519 13.1764 8.05082L13.4105 8.49966C13.4788 8.70456 13.5618 8.88507 13.674 9.03631L13.8203 9.30952L13.9765 9.84618L14.3472 11.4854L14.4595 12.1245L14.4839 13.1881L14.5424 13.5491L14.64 13.8955L14.7375 14.0662L14.6253 14.2272L14.5278 15.1883L14.5863 15.564L14.518 16.3397L14.4839 17.6277V18.1448L14.2058 19.3303L14.1911 20.0963C14.0838 20.3012 13.9716 20.5793 13.957 20.7061L14.0545 21.155L13.8252 21.716V22.3064L13.6447 22.843L13.5715 23.4675L13.4301 24.4335L13.3666 24.8628L13.2495 25.4531L13.069 26.5459L13.0398 27.1802L13.0056 27.4436L12.83 28.3754L12.7422 29.2975L12.6153 29.6829V30.1952L12.4885 30.7026L12.4299 31.7808L12.3031 32.0052L12.2933 32.6882L12.147 33.1614L12.1274 33.8884L12.0494 34.225L12.0201 34.6689L11.8786 35.6496L11.8933 36.1618L11.864 36.557L11.7469 36.9083L11.7225 37.3864L11.6591 37.9572V38.5036L11.581 39.1183L11.5518 40.3185L11.5176 40.7966L11.6298 41.2015L11.4103 41.7089L11.5322 42.6358C11.4737 42.8164 11.4249 43.0896 11.4347 43.2652L11.4005 43.9189L11.4298 44.7386L11.4688 45.2362L11.6347 45.7241L11.7762 46.0021L11.8006 46.5047L11.9128 47.0608L12.1226 47.3487L12.3811 48.139L12.6836 48.5586L12.9812 49.1782L13.2642 49.5636L13.5813 50.1149L13.9033 50.393L14.2594 50.9638L14.6936 51.2711L15.0595 51.8663L15.9182 52.6908L16.206 52.8616L16.4646 53.2763L17.1476 53.6812L17.5867 54.1691L18.5917 54.9009L19.6504 55.5839L19.5772 56.023L19.0747 56.4962C18.7186 56.4718 18.4941 56.4816 18.1917 56.5694L17.7867 56.5255L17.2403 56.4133L16.367 56.4035L16.3914 56.4133ZM15.6791 53.5885L15.3962 53.2519L14.3814 52.3883L14.0204 52.0712L13.2934 51.2565L12.8105 50.7589L12.6104 50.4271C12.2006 50.1002 11.9177 49.6807 11.8006 49.1635L11.3664 48.3781L11.1566 47.9244L11.02 47.3828L10.8687 46.8266L10.8102 46.3973L10.4541 45.3386V45.085L10.415 44.2702L10.3321 43.7092L10.415 42.9969L10.4345 42.1431L10.4589 41.6747L10.4931 40.9917L10.5614 40.3965L10.6248 39.7184L10.5175 39.5428L10.6102 39.3671L10.6199 38.4304L10.7273 37.4205L10.6931 37.1473L10.8931 36.2155L10.8785 35.8642L10.8931 35.2593L10.9224 34.6982L11.0541 33.903L11.0395 33.2932L11.0834 33.0443L11.1468 32.5174L11.2493 32.0101L11.3225 31.4149L11.3371 30.8441L11.42 30.1318L11.5469 29.4292L11.6396 28.7316V28.2486L11.7615 27.6729L11.8689 26.9655L11.9469 26.3849L12.1128 25.4482L12.1421 24.8725L12.2201 24.492L12.2982 23.8627L12.4397 23.3845V23.0821L12.5812 22.6186L12.669 21.6038L12.9324 20.8915L12.9568 19.9646C13.152 19.5206 13.2251 19.0474 13.2349 18.5595L13.3813 17.3691L13.4935 16.0763L13.474 15.6469L13.4984 14.8078L13.5667 14.0809L13.4447 13.6028L13.4886 12.5685L13.2788 11.9977L12.6251 11.583L12.0347 11.2512L11.5957 10.9878L10.859 10.5585L10.5175 10.4121L9.9857 10.0804C9.79543 10.0462 9.3661 10.0267 9.20511 10.0413L8.68797 10.8317L8.4977 11.2951L8.1757 11.8025L7.89274 12.2319C7.80492 12.7148 7.45366 13.0173 6.99994 13.0515L6.69258 12.6807L6.39986 12.1196L6.13153 11.6171L5.91687 11.1195L5.63879 10.5487L5.18507 10.0657L4.65817 9.98766L3.92636 10.3536L3.61413 10.4706C3.07259 10.8561 2.57497 11.1585 1.98465 11.4513C1.68217 11.5293 1.4236 11.7928 1.3553 12.0806L1.24309 12.3782L1.20406 12.9198V13.3588L1.22845 14.2175L1.18942 14.6956L1.30163 15.281L1.24796 16.0763L1.20893 16.7983L1.40896 17.8911L1.30163 18.2961L1.32114 18.7742L1.45287 19.3596L1.47726 19.8133L1.3992 20.8671L1.51629 21.5306L1.43335 22.2576L1.48702 22.8528L1.46263 23.326L1.53093 23.7651L1.58947 24.1359L1.52117 24.6823L1.53093 25.1799L1.55044 26.019L1.57484 26.5947L1.58459 27.1899L1.62362 27.7363L1.70656 28.112V28.8243L1.65777 29.761L1.77486 30.8294L1.79926 31.8686V32.4394L1.92122 32.6101L1.86756 32.7663L1.90659 33.3907L2.17492 34.3421C2.17492 34.4836 2.14564 34.7177 2.09686 34.9178L2.07246 35.5764L2.2237 36.2789L2.27737 36.8888L2.37494 37.6059L2.5213 38.2889L2.62375 38.7719C2.63839 39.0598 2.69693 39.3964 2.78963 39.6842L3.02869 40.8454L3.05796 41.4357L3.22383 42.0553L3.47265 42.6261L3.63364 43.5335L3.94588 44.2507L4.07273 44.8313L4.24348 45.3094L4.56547 46.1631L4.72647 46.7047L4.98016 47.0413L5.1314 47.4706C5.23873 47.6999 5.38021 47.9439 5.5656 48.1732L5.87784 48.9147L6.21447 49.3197L6.71698 49.9929L7.09263 50.432L7.81468 51.2467L8.12204 51.4712L8.44891 51.8566L8.83433 52.0615L9.71249 52.7201L9.99058 52.8909L11.0249 53.5348L11.9421 53.9739L12.6543 54.3398L13.1373 54.5301L13.7081 54.7643L14.1472 54.9545L14.6546 55.1107L15.24 55.3302L15.7133 55.4619L15.884 55.3936L16.0499 55.5449L16.7134 55.5985L17.0452 55.179L16.8988 54.7643L16.611 54.4276L16.1768 53.93L15.6694 53.5544L15.6791 53.5885Z" fill="white"/>
<path d="M9.21501 49.6743L8.45393 49.645L8.08803 49.001L7.9124 48.7034L7.63919 48.4302L7.23426 47.957L6.95618 47.7277L6.84397 47.4447L6.06826 47.0934V46.6495L5.74138 46.2104L5.84871 45.8055L5.56575 45.5518L5.48281 45.0346L5.69748 44.6687L5.39012 44.3955L5.19009 43.9711L5.05349 43.41L4.79004 43.0539C4.80955 42.7758 4.91689 42.3806 5.02422 42.1513L5.29742 42.1172L5.47306 42.1806L5.88774 42.3221L6.06338 42.6148L6.11216 42.8148V42.9222L6.32683 43.5515L6.27316 44.5468L6.47807 44.9663L6.6537 45.7469L6.93178 45.9665L7.16108 46.3031L7.29769 46.4251L7.25378 46.547L7.23426 46.9178L7.81971 47.4691C7.90264 47.6301 8.02949 47.8106 8.13682 47.9082L8.53687 48.3961L8.9418 48.4302L9.1955 48.9766L9.21501 49.6645V49.6743Z" fill="white"/>
</g>
<defs>
<clipPath id="clip0_206_60">
<rect width="19.6758" height="56.583" fill="white"/>
</clipPath>
</defs>
</svg>
