<svg width="40" height="57" viewBox="0 0 40 57" fill="none" xmlns="http://www.w3.org/2000/svg">
<g clip-path="url(#clip0_228_911)">
<path d="M16.3914 56.4133L15.9523 56.2767L15.3083 56.2132L14.0009 55.9693L13.5325 55.8327L12.9568 55.5449L11.8981 55.2717L11.5322 55.0228L11.1712 54.8179L10.4833 54.5496L9.88812 54.0959L9.37586 53.7934L8.9319 53.5251L8.46355 53.2324L8.23913 52.9299L7.66344 52.5542L6.75601 51.7248L6.29741 51.1638L5.82417 50.6808L5.45827 50.1344L4.93625 49.5002L4.73623 48.8806L4.46302 48.4708L4.09224 47.9048L3.88734 47.3974L3.68731 47.0998L3.62876 46.612L3.30189 46.1436L3.2092 45.4509L2.88233 44.8605V44.5922L2.76036 44.1141L2.55057 43.5726L2.39933 42.9139L2.17492 42.1919L2.05783 41.7235L1.95537 40.9039L1.67241 40.3673L1.71632 39.7086L1.50166 39.0159L1.43335 38.8402L1.51141 38.6646L1.35042 38.0157L1.24309 36.9375L1.07721 35.9716L1.02354 35.0641L0.916213 34.2201L0.886941 33.8737L0.760095 33.3371L0.789367 32.7955L0.701551 32.1369L0.716187 31.1758L0.638128 30.6831L0.525918 29.5366L0.540554 29.1755L0.564947 28.7072L0.550311 27.7217L0.472252 26.8679L0.535675 26.1556L0.413708 25.6483L0.399072 25.1165V24.4042L0.408829 23.8041L0.452737 23.326L0.384436 22.4137V21.3794L0.364921 20.9159L0.281983 20.35L0.355164 19.7548L0.296619 19.1645L0.208803 18.2473L0.164895 17.6423V17.0666L-0.00585938 16.5495L0.174652 16.1543L0.00877669 15.3396C0.111229 14.9444 0.135623 14.6273 0.120987 14.2516L0.18441 13.3881L0.208803 12.2514L0.33077 11.783L0.277105 11.3488L0.44298 10.3731L0.662521 9.9779L0.711308 9.44612L1.02842 8.86068L1.37969 8.12888L1.61874 7.71419L2.14564 7.06532L2.41885 6.72869L3.49704 6.06519L4.29715 5.69929L4.96065 5.43584L5.3607 5.41145L5.96078 5.30899C6.35595 5.19191 6.57061 4.92846 6.62428 4.53816L6.58525 3.94784L6.35107 3.32825L6.30229 3.01113L5.78515 2.12321C5.68757 1.85976 5.51682 1.55728 5.28752 1.32311L4.80453 0.537637C4.93138 0.269309 5.26313 0.0448889 5.60463 0.00585938L6.14617 0.557151L6.3901 0.93281C6.60477 1.20114 6.77064 1.51825 6.87309 1.84025L7.16094 2.45496L7.44878 3.09407C7.47317 3.25995 7.55123 3.51364 7.63417 3.7283L7.74638 4.55768C7.66344 4.90894 7.9708 5.21142 8.31231 5.2163L8.82945 5.2846L9.43441 5.46511L9.96618 5.6749L10.5077 5.79199L10.8395 6.06519L11.4591 6.38719L11.7664 6.63112L12.347 7.12387L12.7178 7.55807C12.8397 7.76298 12.9471 7.87519 13.1764 8.05082L13.4105 8.49966C13.4788 8.70456 13.5618 8.88507 13.674 9.03631L13.8203 9.30952L13.9765 9.84618L14.3472 11.4854L14.4595 12.1245L14.4839 13.1881L14.5424 13.5491L14.64 13.8955L14.7375 14.0662L14.6253 14.2272L14.5278 15.1883L14.5863 15.564L14.518 16.3397L14.4839 17.6277V18.1448L14.2058 19.3303L14.1911 20.0963C14.0838 20.3012 13.9716 20.5793 13.957 20.7061L14.0545 21.155L13.8252 21.716V22.3064L13.6447 22.843L13.5715 23.4675L13.4301 24.4335L13.3666 24.8628L13.2495 25.4531L13.069 26.5459L13.0398 27.1802L13.0056 27.4436L12.83 28.3754L12.7422 29.2975L12.6153 29.6829V30.1952L12.4885 30.7026L12.4299 31.7808L12.3031 32.0052L12.2933 32.6882L12.147 33.1614L12.1274 33.8884L12.0494 34.225L12.0201 34.6689L11.8786 35.6496L11.8933 36.1618L11.864 36.557L11.7469 36.9083L11.7225 37.3864L11.6591 37.9572V38.5036L11.581 39.1183L11.5518 40.3185L11.5176 40.7966L11.6298 41.2015L11.4103 41.7089L11.5322 42.6358C11.4737 42.8164 11.4249 43.0896 11.4347 43.2652L11.4005 43.9189L11.4298 44.7386L11.4688 45.2362L11.6347 45.7241L11.7762 46.0021L11.8006 46.5047L11.9128 47.0608L12.1226 47.3487L12.3811 48.139L12.6836 48.5586L12.9812 49.1782L13.2642 49.5636L13.5813 50.1149L13.9033 50.393L14.2594 50.9638L14.6936 51.2711L15.0595 51.8663L15.9182 52.6908L16.206 52.8616L16.4646 53.2763L17.1476 53.6812L17.5867 54.1691L18.5917 54.9009L19.6504 55.5839L19.5772 56.023L19.0747 56.4962C18.7186 56.4718 18.4941 56.4816 18.1917 56.5694L17.7867 56.5255L17.2403 56.4133L16.367 56.4035L16.3914 56.4133ZM15.6791 53.5885L15.3962 53.2519L14.3814 52.3883L14.0204 52.0712L13.2934 51.2565L12.8105 50.7589L12.6104 50.4271C12.2006 50.1002 11.9177 49.6807 11.8006 49.1635L11.3664 48.3781L11.1566 47.9244L11.02 47.3828L10.8687 46.8266L10.8102 46.3973L10.4541 45.3386V45.085L10.415 44.2702L10.3321 43.7092L10.415 42.9969L10.4345 42.1431L10.4589 41.6747L10.4931 40.9917L10.5614 40.3965L10.6248 39.7184L10.5175 39.5428L10.6102 39.3671L10.6199 38.4304L10.7273 37.4205L10.6931 37.1473L10.8931 36.2155L10.8785 35.8642L10.8931 35.2593L10.9224 34.6982L11.0541 33.903L11.0395 33.2932L11.0834 33.0443L11.1468 32.5174L11.2493 32.0101L11.3225 31.4149L11.3371 30.8441L11.42 30.1318L11.5469 29.4292L11.6396 28.7316V28.2486L11.7615 27.6729L11.8689 26.9655L11.9469 26.3849L12.1128 25.4482L12.1421 24.8725L12.2201 24.492L12.2982 23.8627L12.4397 23.3845V23.0821L12.5812 22.6186L12.669 21.6038L12.9324 20.8915L12.9568 19.9646C13.152 19.5206 13.2251 19.0474 13.2349 18.5595L13.3813 17.3691L13.4935 16.0763L13.474 15.6469L13.4984 14.8078L13.5667 14.0809L13.4447 13.6028L13.4886 12.5685L13.2788 11.9977L12.6251 11.583L12.0347 11.2512L11.5957 10.9878L10.859 10.5585L10.5175 10.4121L9.9857 10.0804C9.79543 10.0462 9.3661 10.0267 9.20511 10.0413L8.68797 10.8317L8.4977 11.2951L8.1757 11.8025L7.89274 12.2319C7.80492 12.7148 7.45366 13.0173 6.99994 13.0515L6.69258 12.6807L6.39986 12.1196L6.13153 11.6171L5.91687 11.1195L5.63879 10.5487L5.18507 10.0657L4.65817 9.98766L3.92636 10.3536L3.61413 10.4706C3.07259 10.8561 2.57497 11.1585 1.98465 11.4513C1.68217 11.5293 1.4236 11.7928 1.3553 12.0806L1.24309 12.3782L1.20406 12.9198V13.3588L1.22845 14.2175L1.18942 14.6956L1.30163 15.281L1.24796 16.0763L1.20893 16.7983L1.40896 17.8911L1.30163 18.2961L1.32114 18.7742L1.45287 19.3596L1.47726 19.8133L1.3992 20.8671L1.51629 21.5306L1.43335 22.2576L1.48702 22.8528L1.46263 23.326L1.53093 23.7651L1.58947 24.1359L1.52117 24.6823L1.53093 25.1799L1.55044 26.019L1.57484 26.5947L1.58459 27.1899L1.62362 27.7363L1.70656 28.112V28.8243L1.65777 29.761L1.77486 30.8294L1.79926 31.8686V32.4394L1.92122 32.6101L1.86756 32.7663L1.90659 33.3907L2.17492 34.3421C2.17492 34.4836 2.14564 34.7177 2.09686 34.9178L2.07246 35.5764L2.2237 36.2789L2.27737 36.8888L2.37494 37.6059L2.5213 38.2889L2.62375 38.7719C2.63839 39.0598 2.69693 39.3964 2.78963 39.6842L3.02869 40.8454L3.05796 41.4357L3.22383 42.0553L3.47265 42.6261L3.63364 43.5335L3.94588 44.2507L4.07273 44.8313L4.24348 45.3094L4.56547 46.1631L4.72647 46.7047L4.98016 47.0413L5.1314 47.4706C5.23873 47.6999 5.38021 47.9439 5.5656 48.1732L5.87784 48.9147L6.21447 49.3197L6.71698 49.9929L7.09263 50.432L7.81468 51.2467L8.12204 51.4712L8.44891 51.8566L8.83433 52.0615L9.71249 52.7201L9.99058 52.8909L11.0249 53.5348L11.9421 53.9739L12.6543 54.3398L13.1373 54.5301L13.7081 54.7643L14.1472 54.9545L14.6546 55.1107L15.24 55.3302L15.7133 55.4619L15.884 55.3936L16.0499 55.5449L16.7134 55.5985L17.0452 55.179L16.8988 54.7643L16.611 54.4276L16.1768 53.93L15.6694 53.5544L15.6791 53.5885Z" fill="white"/>
<path d="M9.21501 49.6743L8.45393 49.645L8.08803 49.001L7.9124 48.7034L7.63919 48.4302L7.23426 47.957L6.95618 47.7277L6.84397 47.4447L6.06826 47.0934V46.6495L5.74138 46.2104L5.84871 45.8055L5.56575 45.5518L5.48281 45.0346L5.69748 44.6687L5.39012 44.3955L5.19009 43.9711L5.05349 43.41L4.79004 43.0539C4.80955 42.7758 4.91689 42.3806 5.02422 42.1513L5.29742 42.1172L5.47306 42.1806L5.88774 42.3221L6.06338 42.6148L6.11216 42.8148V42.9222L6.32683 43.5515L6.27316 44.5468L6.47807 44.9663L6.6537 45.7469L6.93178 45.9665L7.16108 46.3031L7.29769 46.4251L7.25378 46.547L7.23426 46.9178L7.81971 47.4691C7.90264 47.6301 8.02949 47.8106 8.13682 47.9082L8.53687 48.3961L8.9418 48.4302L9.1955 48.9766L9.21501 49.6645V49.6743Z" fill="white"/>
</g>
<g clip-path="url(#clip1_228_911)">
<path d="M36.0672 56.4133L35.6281 56.2767L34.9841 56.2132L33.6766 55.9693L33.2083 55.8327L32.6326 55.5449L31.5739 55.2717L31.208 55.0228L30.847 54.8179L30.1591 54.5496L29.5639 54.0959L29.0516 53.7934L28.6077 53.5251L28.1393 53.2324L27.9149 52.9299L27.3392 52.5542L26.4318 51.7248L25.9732 51.1638L25.5 50.6808L25.1341 50.1344L24.612 49.5002L24.412 48.8806L24.1388 48.4708L23.768 47.9048L23.5631 47.3974L23.3631 47.0998L23.3045 46.612L22.9777 46.1436L22.885 45.4509L22.5581 44.8605V44.5922L22.4361 44.1141L22.2264 43.5726L22.0751 42.9139L21.8507 42.1919L21.7336 41.7235L21.6312 40.9039L21.3482 40.3673L21.3921 39.7086L21.1774 39.0159L21.1091 38.8402L21.1872 38.6646L21.0262 38.0157L20.9189 36.9375L20.753 35.9716L20.6993 35.0641L20.592 34.2201L20.5627 33.8737L20.4359 33.3371L20.4651 32.7955L20.3773 32.1369L20.392 31.1758L20.3139 30.6831L20.2017 29.5366L20.2163 29.1755L20.2407 28.7072L20.2261 27.7217L20.148 26.8679L20.2115 26.1556L20.0895 25.6483L20.0749 25.1165V24.4042L20.0846 23.8041L20.1285 23.326L20.0602 22.4137V21.3794L20.0407 20.9159L19.9578 20.35L20.0309 19.7548L19.9724 19.1645L19.8846 18.2473L19.8407 17.6423V17.0666L19.6699 16.5495L19.8504 16.1543L19.6846 15.3396C19.787 14.9444 19.8114 14.6273 19.7968 14.2516L19.8602 13.3881L19.8846 12.2514L20.0066 11.783L19.9529 11.3488L20.1188 10.3731L20.3383 9.9779L20.3871 9.44612L20.7042 8.86068L21.0555 8.12888L21.2945 7.71419L21.8214 7.06532L22.0946 6.72869L23.1728 6.06519L23.9729 5.69929L24.6364 5.43584L25.0365 5.41145L25.6366 5.30899C26.0317 5.19191 26.2464 4.92846 26.3001 4.53816L26.261 3.94784L26.0269 3.32825L25.9781 3.01113L25.4609 2.12321C25.3634 1.85976 25.1926 1.55728 24.9633 1.32311L24.4803 0.537637C24.6072 0.269309 24.9389 0.0448889 25.2804 0.00585938L25.8219 0.557151L26.0659 0.93281C26.2805 1.20114 26.4464 1.51825 26.5489 1.84025L26.8367 2.45496L27.1246 3.09407C27.149 3.25995 27.227 3.51364 27.31 3.7283L27.4222 4.55768C27.3392 4.90894 27.6466 5.21142 27.9881 5.2163L28.5052 5.2846L29.1102 5.46511L29.642 5.6749L30.1835 5.79199L30.5152 6.06519L31.1348 6.38719L31.4422 6.63112L32.0228 7.12387L32.3935 7.55807C32.5155 7.76298 32.6228 7.87519 32.8521 8.05082L33.0863 8.49966C33.1546 8.70456 33.2376 8.88507 33.3498 9.03631L33.4961 9.30952L33.6522 9.84618L34.023 11.4854L34.1352 12.1245L34.1596 13.1881L34.2182 13.5491L34.3157 13.8955L34.4133 14.0662L34.3011 14.2272L34.2035 15.1883L34.2621 15.564L34.1938 16.3397L34.1596 17.6277V18.1448L33.8815 19.3303L33.8669 20.0963C33.7596 20.3012 33.6474 20.5793 33.6327 20.7061L33.7303 21.155L33.501 21.716V22.3064L33.3205 22.843L33.2473 23.4675L33.1058 24.4335L33.0424 24.8628L32.9253 25.4531L32.7448 26.5459L32.7155 27.1802L32.6814 27.4436L32.5058 28.3754L32.4179 29.2975L32.2911 29.6829V30.1952L32.1642 30.7026L32.1057 31.7808L31.9789 32.0052L31.9691 32.6882L31.8227 33.1614L31.8032 33.8884L31.7252 34.225L31.6959 34.6689L31.5544 35.6496L31.569 36.1618L31.5398 36.557L31.4227 36.9083L31.3983 37.3864L31.3349 37.9572V38.5036L31.2568 39.1183L31.2275 40.3185L31.1934 40.7966L31.3056 41.2015L31.0861 41.7089L31.208 42.6358C31.1495 42.8164 31.1007 43.0896 31.1104 43.2652L31.0763 43.9189L31.1056 44.7386L31.1446 45.2362L31.3105 45.7241L31.452 46.0021L31.4764 46.5047L31.5886 47.0608L31.7983 47.3487L32.0569 48.139L32.3594 48.5586L32.657 49.1782L32.94 49.5636L33.2571 50.1149L33.5791 50.393L33.9352 50.9638L34.3694 51.2711L34.7353 51.8663L35.594 52.6908L35.8818 52.8616L36.1404 53.2763L36.8234 53.6812L37.2625 54.1691L38.2675 54.9009L39.3262 55.5839L39.253 56.023L38.7505 56.4962C38.3943 56.4718 38.1699 56.4816 37.8674 56.5694L37.4625 56.5255L36.9161 56.4133L36.0428 56.4035L36.0672 56.4133ZM35.3549 53.5885L35.0719 53.2519L34.0572 52.3883L33.6962 52.0712L32.9692 51.2565L32.4862 50.7589L32.2862 50.4271C31.8764 50.1002 31.5934 49.6807 31.4764 49.1635L31.0421 48.3781L30.8324 47.9244L30.6958 47.3828L30.5445 46.8266L30.486 46.3973L30.1298 45.3386V45.085L30.0908 44.2702L30.0079 43.7092L30.0908 42.9969L30.1103 42.1431L30.1347 41.6747L30.1689 40.9917L30.2372 40.3965L30.3006 39.7184L30.1933 39.5428L30.286 39.3671L30.2957 38.4304L30.403 37.4205L30.3689 37.1473L30.5689 36.2155L30.5543 35.8642L30.5689 35.2593L30.5982 34.6982L30.7299 33.903L30.7153 33.2932L30.7592 33.0443L30.8226 32.5174L30.9251 32.0101L30.9982 31.4149L31.0129 30.8441L31.0958 30.1318L31.2227 29.4292L31.3154 28.7316V28.2486L31.4373 27.6729L31.5447 26.9655L31.6227 26.3849L31.7886 25.4482L31.8179 24.8725L31.8959 24.492L31.974 23.8627L32.1155 23.3845V23.0821L32.2569 22.6186L32.3448 21.6038L32.6082 20.8915L32.6326 19.9646C32.8277 19.5206 32.9009 19.0474 32.9107 18.5595L33.057 17.3691L33.1693 16.0763L33.1497 15.6469L33.1741 14.8078L33.2424 14.0809L33.1205 13.6028L33.1644 12.5685L32.9546 11.9977L32.3008 11.583L31.7105 11.2512L31.2714 10.9878L30.5348 10.5585L30.1933 10.4121L29.6615 10.0804C29.4712 10.0462 29.0419 10.0267 28.8809 10.0413L28.3637 10.8317L28.1735 11.2951L27.8515 11.8025L27.5685 12.2319C27.4807 12.7148 27.1294 13.0173 26.6757 13.0515L26.3684 12.6807L26.0756 12.1196L25.8073 11.6171L25.5927 11.1195L25.3146 10.5487L24.8608 10.0657L24.3339 9.98766L23.6021 10.3536L23.2899 10.4706C22.7484 10.8561 22.2507 11.1585 21.6604 11.4513C21.3579 11.5293 21.0994 11.7928 21.0311 12.0806L20.9189 12.3782L20.8798 12.9198V13.3588L20.9042 14.2175L20.8652 14.6956L20.9774 15.281L20.9237 16.0763L20.8847 16.7983L21.0847 17.8911L20.9774 18.2961L20.9969 18.7742L21.1287 19.3596L21.153 19.8133L21.075 20.8671L21.1921 21.5306L21.1091 22.2576L21.1628 22.8528L21.1384 23.326L21.2067 23.7651L21.2653 24.1359L21.197 24.6823L21.2067 25.1799L21.2262 26.019L21.2506 26.5947L21.2604 27.1899L21.2994 27.7363L21.3823 28.112V28.8243L21.3336 29.761L21.4506 30.8294L21.475 31.8686V32.4394L21.597 32.6101L21.5433 32.7663L21.5824 33.3907L21.8507 34.3421C21.8507 34.4836 21.8214 34.7177 21.7726 34.9178L21.7482 35.5764L21.8995 36.2789L21.9531 36.8888L22.0507 37.6059L22.1971 38.2889L22.2995 38.7719C22.3142 39.0598 22.3727 39.3964 22.4654 39.6842L22.7045 40.8454L22.7337 41.4357L22.8996 42.0553L23.1484 42.6261L23.3094 43.5335L23.6217 44.2507L23.7485 44.8313L23.9193 45.3094L24.2413 46.1631L24.4023 46.7047L24.6559 47.0413L24.8072 47.4706C24.9145 47.6999 25.056 47.9439 25.2414 48.1732L25.5536 48.9147L25.8903 49.3197L26.3928 49.9929L26.7684 50.432L27.4905 51.2467L27.7978 51.4712L28.1247 51.8566L28.5101 52.0615L29.3883 52.7201L29.6664 52.8909L30.7006 53.5348L31.6178 53.9739L32.3301 54.3398L32.8131 54.5301L33.3839 54.7643L33.823 54.9545L34.3304 55.1107L34.9158 55.3302L35.3891 55.4619L35.5598 55.3936L35.7257 55.5449L36.3892 55.5985L36.7209 55.179L36.5746 54.7643L36.2867 54.4276L35.8525 53.93L35.3452 53.5544L35.3549 53.5885Z" fill="white"/>
<path d="M28.8908 49.6743L28.1297 49.645L27.7638 49.001L27.5882 48.7034L27.315 48.4302L26.91 47.957L26.632 47.7277L26.5197 47.4447L25.744 47.0934V46.6495L25.4172 46.2104L25.5245 45.8055L25.2415 45.5518L25.1586 45.0346L25.3733 44.6687L25.0659 44.3955L24.8659 43.9711L24.7293 43.41L24.4658 43.0539C24.4853 42.7758 24.5927 42.3806 24.7 42.1513L24.9732 42.1172L25.1488 42.1806L25.5635 42.3221L25.7392 42.6148L25.7879 42.8148V42.9222L26.0026 43.5515L25.9489 44.5468L26.1538 44.9663L26.3295 45.7469L26.6076 45.9665L26.8369 46.3031L26.9735 46.4251L26.9296 46.547L26.91 46.9178L27.4955 47.4691C27.5784 47.6301 27.7053 47.8106 27.8126 47.9082L28.2127 48.3961L28.6176 48.4302L28.8713 48.9766L28.8908 49.6645V49.6743Z" fill="white"/>
</g>
<defs>
<clipPath id="clip0_228_911">
<rect width="19.6758" height="56.583" fill="white"/>
</clipPath>
<clipPath id="clip1_228_911">
<rect width="19.6758" height="56.583" fill="white" transform="translate(19.6758)"/>
</clipPath>
</defs>
</svg>
