<svg width="638" height="172" viewBox="0 0 638 172" fill="none" xmlns="http://www.w3.org/2000/svg">
<rect x="1.23541" y="1.23541" width="634.862" height="169.539" stroke="black" stroke-width="2.47081"/>
<path d="M80.6783 109.988C78.1526 109.988 75.7092 109.686 73.3482 109.082C70.9872 108.478 68.8459 107.545 66.9241 106.282C65.0024 105.019 63.465 103.399 62.3119 101.423C61.1589 99.3913 60.5549 96.9754 60.5 94.1751H67.4183C67.4183 94.3399 67.4732 94.7791 67.583 95.4929C67.6928 96.2067 67.9673 97.0303 68.4066 97.9637C68.9008 98.8971 69.6145 99.8031 70.548 100.682C71.5363 101.56 72.8815 102.301 74.5836 102.905C76.3406 103.454 78.5369 103.729 81.1725 103.729C83.204 103.729 84.9061 103.509 86.2788 103.07C87.6515 102.631 88.7496 102.054 89.5732 101.34C90.3968 100.627 90.9733 99.8855 91.3028 99.1168C91.6871 98.3481 91.8793 97.6617 91.8793 97.0577C91.8793 95.3556 91.3302 93.983 90.2321 92.9397C89.1889 91.8965 87.7613 91.0729 85.9494 90.4689C84.1374 89.81 82.1333 89.2335 79.937 88.7393C77.7957 88.1903 75.6543 87.6138 73.5129 87.0098C71.3716 86.3509 69.3949 85.4998 67.583 84.4566C65.826 83.4134 64.4533 82.0682 63.465 80.4209C62.4766 78.7188 62.0374 76.55 62.1472 73.9145C62.3119 71.3888 63.1904 69.2199 64.7827 67.408C66.375 65.5961 68.5439 64.2234 71.2892 63.29C74.0895 62.3017 77.2741 61.8075 80.843 61.8075C84.0825 61.8075 87.0475 62.384 89.7379 63.5371C92.4833 64.6901 94.6796 66.4197 96.3268 68.7258C98.0289 70.977 98.8525 73.8596 98.7976 77.3736H92.1264C92.1813 75.4519 91.7969 73.9145 90.9733 72.7614C90.1497 71.5535 89.0791 70.6201 87.7613 69.9612C86.4984 69.3023 85.1807 68.863 83.808 68.6434C82.4353 68.3689 81.1999 68.2316 80.1018 68.2316C77.027 68.2316 74.4738 68.8081 72.4423 69.9612C70.4656 71.0593 69.4498 72.6242 69.3949 74.6557C69.34 76.4127 69.8616 77.8129 70.9598 78.8561C72.0579 79.8993 73.5129 80.7229 75.3249 81.3269C77.1368 81.9309 79.1409 82.48 81.3372 82.9741C83.5335 83.4683 85.7023 84.0174 87.8436 84.6213C89.985 85.2253 91.9342 86.0489 93.6912 87.0921C95.5032 88.0805 96.9033 89.4257 97.8916 91.1278C98.9348 92.8299 99.4016 95.0262 99.2917 97.7166C99.1819 100.297 98.3034 102.494 96.6562 104.305C95.009 106.117 92.8127 107.518 90.0674 108.506C87.322 109.494 84.1923 109.988 80.6783 109.988ZM121.285 109.824C117.661 109.824 114.614 109.082 112.143 107.6C109.672 106.117 107.806 104.086 106.543 101.505C105.335 98.8697 104.731 95.9047 104.731 92.6103C104.731 89.2061 105.335 86.2136 106.543 83.633C107.806 80.9975 109.672 78.9385 112.143 77.456C114.614 75.9735 117.689 75.2322 121.368 75.2322C126.748 75.2322 130.839 76.8245 133.639 80.0091C136.439 83.1937 137.84 87.3941 137.84 92.6103C137.84 95.8498 137.236 98.7873 136.028 101.423C134.875 104.003 133.063 106.062 130.592 107.6C128.176 109.082 125.074 109.824 121.285 109.824ZM121.285 103.976C123.976 103.976 126.035 103.399 127.462 102.246C128.89 101.093 129.851 99.6384 130.345 97.8813C130.894 96.0694 131.168 94.23 131.168 92.3632C131.168 90.4964 130.894 88.6844 130.345 86.9274C129.851 85.1155 128.89 83.633 127.462 82.48C126.035 81.272 123.976 80.668 121.285 80.668C118.705 80.668 116.673 81.272 115.191 82.48C113.763 83.633 112.775 85.1155 112.226 86.9274C111.676 88.6844 111.402 90.4964 111.402 92.3632C111.402 94.23 111.676 96.0694 112.226 97.8813C112.775 99.6384 113.763 101.093 115.191 102.246C116.673 103.399 118.705 103.976 121.285 103.976ZM144.086 109V75.3146H150.51L150.757 83.1388H150.922C150.977 82.8094 151.197 82.2329 151.581 81.4093C151.965 80.5857 152.542 79.7072 153.311 78.7737C154.134 77.8403 155.177 77.0442 156.44 76.3853C157.758 75.6715 159.405 75.3146 161.382 75.3146C163.304 75.3146 164.896 75.699 166.159 76.4676C167.422 77.1814 168.41 78.1423 169.124 79.3503C169.892 80.5033 170.441 81.7662 170.771 83.1388H170.936C171.045 82.8094 171.32 82.2329 171.759 81.4093C172.198 80.5857 172.83 79.7072 173.654 78.7737C174.532 77.7854 175.658 76.9618 177.03 76.3029C178.403 75.644 180.078 75.3146 182.054 75.3146C184.196 75.3146 185.953 75.7539 187.325 76.6324C188.753 77.5109 189.879 78.6639 190.702 80.0915C191.526 81.4642 192.13 82.9467 192.514 84.539C192.898 86.0764 193.145 87.5588 193.255 88.9864C193.365 90.414 193.42 91.5945 193.42 92.5279V109H186.749V92.4456C186.749 91.5671 186.694 90.5238 186.584 89.3159C186.529 88.053 186.282 86.8176 185.843 85.6097C185.459 84.4017 184.8 83.4134 183.866 82.6447C182.933 81.8211 181.615 81.4093 179.913 81.4093C177.936 81.4093 176.371 81.9583 175.218 83.0565C174.065 84.1546 173.242 85.5822 172.748 87.3392C172.308 89.0962 172.089 90.9631 172.089 92.9397V109H165.417V92.4456C165.417 91.5671 165.363 90.5238 165.253 89.3159C165.198 88.053 164.951 86.8176 164.512 85.6097C164.127 84.4017 163.468 83.4134 162.535 82.6447C161.601 81.8211 160.284 81.4093 158.582 81.4093C156.605 81.4093 155.04 81.9583 153.887 83.0565C152.734 84.1546 151.91 85.5822 151.416 87.3392C150.977 89.0962 150.757 90.9631 150.757 92.9397V109H144.086ZM215.308 109.824C211.519 109.824 208.417 109 206.001 107.353C203.585 105.651 201.801 103.482 200.648 100.846C199.495 98.1559 198.918 95.3831 198.918 92.5279C198.863 89.2884 199.467 86.3509 200.73 83.7154C202.048 81.0798 203.915 78.9934 206.331 77.456C208.801 75.9186 211.739 75.1499 215.143 75.1499C218.108 75.1499 220.744 75.8088 223.05 77.1265C225.356 78.3894 227.195 80.2013 228.568 82.5623C229.941 84.8684 230.682 87.6138 230.792 90.7984C230.847 90.9631 230.874 91.2925 230.874 91.7867C230.874 92.2259 230.874 92.6103 230.874 92.9397H205.425C205.425 96.4538 206.276 99.1991 207.978 101.176C209.735 103.098 212.151 104.058 215.226 104.058C217.532 104.058 219.481 103.482 221.073 102.329C222.72 101.121 223.736 99.5286 224.12 97.5519H230.792C230.462 99.858 229.639 101.944 228.321 103.811C227.003 105.678 225.246 107.161 223.05 108.259C220.854 109.302 218.273 109.824 215.308 109.824ZM205.672 89.5629H223.956C223.901 88.959 223.736 88.1628 223.462 87.1745C223.242 86.1862 222.803 85.2253 222.144 84.2919C221.485 83.3036 220.579 82.48 219.426 81.8211C218.273 81.1622 216.79 80.8327 214.978 80.8327C213.331 80.8327 211.931 81.1073 210.778 81.6564C209.625 82.2054 208.692 82.9467 207.978 83.8801C207.264 84.7586 206.715 85.7195 206.331 86.7627C206.001 87.751 205.782 88.6844 205.672 89.5629ZM247.184 109C244.878 109 243.176 108.396 242.078 107.188C240.979 105.98 240.43 104.141 240.43 101.67V79.4326H246.937V103.564H254.761V109H247.184ZM235.242 80.2562V75.3146C236.505 75.3146 237.52 75.2322 238.289 75.0675C239.113 74.9028 239.717 74.5734 240.101 74.0792C240.54 73.5301 240.842 72.6791 241.007 71.526C241.172 70.3181 241.254 68.6983 241.254 66.6668H246.937V75.3146H254.679V80.2562H235.242ZM261.845 109V62.6311H268.846V83.1388H269.011C269.066 82.9192 269.285 82.3976 269.67 81.574C270.054 80.7504 270.658 79.8719 271.482 78.9385C272.36 77.9501 273.513 77.0991 274.941 76.3853C276.368 75.6715 278.18 75.3146 280.376 75.3146C282.737 75.3146 284.687 75.699 286.224 76.4676C287.761 77.1814 288.969 78.1698 289.848 79.4326C290.781 80.6955 291.468 82.0956 291.907 83.633C292.346 85.1704 292.621 86.7078 292.731 88.2452C292.895 89.7826 292.978 91.2102 292.978 92.5279V109H286.306V92.4456C286.306 90.3591 286.087 88.4923 285.648 86.8451C285.208 85.1429 284.412 83.8252 283.259 82.8918C282.106 81.9034 280.376 81.4093 278.07 81.4093C275.764 81.4093 273.925 81.9583 272.552 83.0565C271.234 84.1546 270.274 85.5822 269.67 87.3392C269.121 89.0413 268.846 90.9082 268.846 92.9397V109H261.845ZM300.869 109V75.3146H307.705V109H300.869ZM304.329 70.6201C302.736 70.6201 301.638 70.2083 301.034 69.3847C300.485 68.5611 300.211 67.6002 300.211 66.502C300.211 65.4588 300.485 64.5528 301.034 63.7841C301.638 62.9605 302.736 62.5487 304.329 62.5487C305.921 62.5487 306.964 62.9605 307.458 63.7841C308.007 64.5528 308.282 65.4588 308.282 66.502C308.282 67.6002 308.007 68.5611 307.458 69.3847C306.964 70.2083 305.921 70.6201 304.329 70.6201ZM314.92 109V75.3146H320.767L321.92 83.1388H322.085C322.14 82.9192 322.359 82.3976 322.744 81.574C323.128 80.7504 323.76 79.8719 324.638 78.9385C325.517 77.9501 326.697 77.0991 328.18 76.3853C329.662 75.6715 331.529 75.3146 333.78 75.3146C336.141 75.3146 338.063 75.699 339.545 76.4676C341.083 77.1814 342.291 78.1698 343.169 79.4326C344.103 80.6406 344.762 82.0132 345.146 83.5506C345.53 85.0331 345.777 86.5705 345.887 88.1628C345.997 89.7002 346.052 91.1552 346.052 92.5279V109H339.381V92.4456C339.381 90.3591 339.161 88.4923 338.722 86.8451C338.283 85.1429 337.486 83.8252 336.333 82.8918C335.18 81.9034 333.451 81.4093 331.145 81.4093C328.839 81.4093 326.999 81.9583 325.626 83.0565C324.309 84.1546 323.348 85.5822 322.744 87.3392C322.195 89.0413 321.92 90.9082 321.92 92.9397V109H314.92ZM361.293 123.413V116.989H377.106V102.246H376.941C376.832 102.466 376.557 102.988 376.118 103.811C375.679 104.58 374.992 105.431 374.059 106.364C373.18 107.298 372 108.121 370.517 108.835C369.09 109.494 367.305 109.824 365.164 109.824C361.924 109.824 359.234 109.082 357.093 107.6C354.951 106.117 353.359 104.086 352.316 101.505C351.327 98.9246 350.833 95.9596 350.833 92.6103C350.833 89.1511 351.355 86.1313 352.398 83.5506C353.441 80.9151 355.034 78.8836 357.175 77.456C359.316 76.0284 362.007 75.3146 365.246 75.3146C367.443 75.3146 369.282 75.6715 370.764 76.3853C372.247 77.0991 373.4 77.9501 374.224 78.9385C375.102 79.9268 375.734 80.8327 376.118 81.6564C376.557 82.48 376.804 83.0016 376.859 83.2212H377.024V75.3146H384.107V113.283C384.107 115.699 383.805 117.648 383.201 119.13C382.597 120.613 381.636 121.683 380.318 122.342C379.055 123.056 377.353 123.413 375.212 123.413H361.293ZM367.058 103.894C369.2 103.894 371.012 103.427 372.494 102.494C373.976 101.56 375.075 100.242 375.788 98.5402C376.557 96.8381 376.941 94.8615 376.941 92.6103C376.941 90.414 376.585 88.4648 375.871 86.7627C375.157 85.0606 374.086 83.7703 372.659 82.8918C371.286 81.9583 369.529 81.4916 367.388 81.4916C364.972 81.4916 363.023 82.0132 361.54 83.0565C360.112 84.0997 359.069 85.4724 358.41 87.1745C357.806 88.8766 357.504 90.6885 357.504 92.6103C357.504 94.532 357.779 96.3714 358.328 98.1284C358.932 99.8305 359.92 101.231 361.293 102.329C362.721 103.372 364.642 103.894 367.058 103.894ZM423.462 62.6311H430.957L415.144 109H403.696L387.883 62.6311H395.295L409.379 105.953L423.462 62.6311ZM447.992 109.824C444.204 109.824 441.101 109 438.685 107.353C436.269 105.651 434.485 103.482 433.332 100.846C432.179 98.1559 431.602 95.3831 431.602 92.5279C431.547 89.2884 432.151 86.3509 433.414 83.7154C434.732 81.0798 436.599 78.9934 439.015 77.456C441.486 75.9186 444.423 75.1499 447.827 75.1499C450.792 75.1499 453.428 75.8088 455.734 77.1265C458.04 78.3894 459.879 80.2013 461.252 82.5623C462.625 84.8684 463.366 87.6138 463.476 90.7984C463.531 90.9631 463.558 91.2925 463.558 91.7867C463.558 92.2259 463.558 92.6103 463.558 92.9397H438.109C438.109 96.4538 438.96 99.1991 440.662 101.176C442.419 103.098 444.835 104.058 447.91 104.058C450.216 104.058 452.165 103.482 453.757 102.329C455.405 101.121 456.42 99.5286 456.805 97.5519H463.476C463.146 99.858 462.323 101.944 461.005 103.811C459.687 105.678 457.93 107.161 455.734 108.259C453.538 109.302 450.957 109.824 447.992 109.824ZM438.356 89.5629H456.64C456.585 88.959 456.42 88.1628 456.146 87.1745C455.926 86.1862 455.487 85.2253 454.828 84.2919C454.169 83.3036 453.263 82.48 452.11 81.8211C450.957 81.1622 449.475 80.8327 447.663 80.8327C446.015 80.8327 444.615 81.1073 443.462 81.6564C442.309 82.2054 441.376 82.9467 440.662 83.8801C439.948 84.7586 439.399 85.7195 439.015 86.7627C438.685 87.751 438.466 88.6844 438.356 89.5629ZM478.962 123.413V116.989H494.775V102.246H494.611C494.501 102.466 494.226 102.988 493.787 103.811C493.348 104.58 492.661 105.431 491.728 106.364C490.85 107.298 489.669 108.121 488.187 108.835C486.759 109.494 484.974 109.824 482.833 109.824C479.594 109.824 476.903 109.082 474.762 107.6C472.62 106.117 471.028 104.086 469.985 101.505C468.997 98.9246 468.502 95.9596 468.502 92.6103C468.502 89.1511 469.024 86.1313 470.067 83.5506C471.11 80.9151 472.703 78.8836 474.844 77.456C476.986 76.0284 479.676 75.3146 482.915 75.3146C485.112 75.3146 486.951 75.6715 488.434 76.3853C489.916 77.0991 491.069 77.9501 491.893 78.9385C492.771 79.9268 493.403 80.8327 493.787 81.6564C494.226 82.48 494.473 83.0016 494.528 83.2212H494.693V75.3146H501.776V113.283C501.776 115.699 501.474 117.648 500.87 119.13C500.266 120.613 499.305 121.683 497.987 122.342C496.725 123.056 495.022 123.413 492.881 123.413H478.962ZM484.727 103.894C486.869 103.894 488.681 103.427 490.163 102.494C491.646 101.56 492.744 100.242 493.458 98.5402C494.226 96.8381 494.611 94.8615 494.611 92.6103C494.611 90.414 494.254 88.4648 493.54 86.7627C492.826 85.0606 491.755 83.7703 490.328 82.8918C488.955 81.9583 487.198 81.4916 485.057 81.4916C482.641 81.4916 480.692 82.0132 479.209 83.0565C477.782 84.0997 476.738 85.4724 476.08 87.1745C475.476 88.8766 475.174 90.6885 475.174 92.6103C475.174 94.532 475.448 96.3714 475.997 98.1284C476.601 99.8305 477.59 101.231 478.962 102.329C480.39 103.372 482.312 103.894 484.727 103.894ZM520.129 109.741C517.055 109.741 514.529 109 512.552 107.518C510.631 106.035 509.203 104.003 508.27 101.423C507.391 98.8422 506.952 95.8772 506.952 92.5279C506.952 89.0688 507.419 86.0489 508.352 83.4683C509.285 80.8327 510.713 78.7737 512.635 77.2913C514.611 75.8088 517.11 75.0675 520.129 75.0675C521.996 75.0675 523.589 75.3421 524.906 75.8911C526.224 76.3853 527.322 77.0167 528.201 77.7854C529.079 78.5541 529.793 79.3503 530.342 80.1739C530.891 80.9426 531.276 81.6289 531.495 82.2329H531.66V75.3146H538.661V109H532.813L531.66 102.988H531.495C531.276 103.592 530.891 104.278 530.342 105.047C529.793 105.815 529.052 106.557 528.118 107.27C527.24 107.984 526.142 108.561 524.824 109C523.506 109.494 521.941 109.741 520.129 109.741ZM522.847 103.894C525.044 103.894 526.773 103.427 528.036 102.494C529.299 101.505 530.205 100.16 530.754 98.4579C531.303 96.7558 531.578 94.8066 531.578 92.6103C531.578 90.2493 531.276 88.2177 530.672 86.5156C530.123 84.8135 529.217 83.5232 527.954 82.6447C526.691 81.7113 524.989 81.2446 522.847 81.2446C520.596 81.2446 518.784 81.7662 517.412 82.8094C516.094 83.7977 515.133 85.1429 514.529 86.8451C513.98 88.5472 513.705 90.4415 513.705 92.5279C513.705 94.6693 513.98 96.6185 514.529 98.3755C515.133 100.078 516.094 101.423 517.412 102.411C518.784 103.399 520.596 103.894 522.847 103.894ZM544.708 109V75.3146H550.556L551.709 83.1388H551.874C551.929 82.9192 552.148 82.3976 552.533 81.574C552.917 80.7504 553.548 79.8719 554.427 78.9385C555.305 77.9501 556.486 77.0991 557.968 76.3853C559.451 75.6715 561.318 75.3146 563.569 75.3146C565.93 75.3146 567.852 75.699 569.334 76.4676C570.871 77.1814 572.079 78.1698 572.958 79.4326C573.891 80.6406 574.55 82.0132 574.935 83.5506C575.319 85.0331 575.566 86.5705 575.676 88.1628C575.786 89.7002 575.841 91.1552 575.841 92.5279V109H569.169V92.4456C569.169 90.3591 568.95 88.4923 568.51 86.8451C568.071 85.1429 567.275 83.8252 566.122 82.8918C564.969 81.9034 563.239 81.4093 560.933 81.4093C558.627 81.4093 556.788 81.9583 555.415 83.0565C554.097 84.1546 553.137 85.5822 552.533 87.3392C551.983 89.0413 551.709 90.9082 551.709 92.9397V109H544.708Z" fill="black"/>
</svg>
