<svg width="671" height="179" viewBox="0 0 671 179" fill="none" xmlns="http://www.w3.org/2000/svg">
<rect x="1.28322" y="1.28322" width="667.767" height="176.1" stroke="white" stroke-width="2.56644"/>
<path d="M87.9673 114.027C85.3438 114.027 82.8059 113.713 80.3535 113.086C77.9012 112.458 75.6769 111.489 73.6808 110.177C71.6847 108.865 70.0878 107.183 68.8901 105.13C67.6924 103.019 67.0651 100.51 67.008 97.6014H74.1941C74.1941 97.7725 74.2511 98.2287 74.3652 98.9701C74.4792 99.7115 74.7644 100.567 75.2206 101.537C75.7339 102.506 76.4754 103.447 77.4449 104.36C78.4715 105.272 79.8688 106.042 81.6367 106.669C83.4618 107.24 85.743 107.525 88.4806 107.525C90.5908 107.525 92.3588 107.297 93.7846 106.841C95.2104 106.384 96.351 105.785 97.2065 105.044C98.062 104.303 98.6608 103.533 99.003 102.734C99.4022 101.936 99.6018 101.223 99.6018 100.596C99.6018 98.8276 99.0315 97.4018 97.8909 96.3181C96.8073 95.2345 95.3244 94.3791 93.4424 93.7517C91.5603 93.0673 89.4786 92.4685 87.1974 91.9552C84.9731 91.3849 82.7489 90.786 80.5246 90.1587C78.3004 89.4743 76.2472 88.5903 74.3652 87.5067C72.5401 86.4231 71.1143 85.0258 70.0878 83.3149C69.0612 81.5469 68.6049 79.2941 68.719 76.5566C68.8901 73.9331 69.8026 71.6803 71.4565 69.7983C73.1105 67.9162 75.3632 66.4904 78.2148 65.5209C81.1235 64.4943 84.4313 63.981 88.1384 63.981C91.5033 63.981 94.583 64.5798 97.3776 65.7775C100.229 66.9752 102.51 68.7717 104.221 71.167C105.989 73.5054 106.845 76.4995 106.788 80.1496H99.8585C99.9155 78.1535 99.5163 76.5566 98.6608 75.3589C97.8053 74.1042 96.6932 73.1346 95.3244 72.4503C94.0127 71.7659 92.6439 71.3096 91.2181 71.0815C89.7923 70.7963 88.5091 70.6538 87.3685 70.6538C84.1747 70.6538 81.5227 71.2526 79.4125 72.4503C77.3593 73.5909 76.3043 75.2163 76.2472 77.3265C76.1902 79.1515 76.732 80.6058 77.8726 81.6894C79.0133 82.7731 80.5246 83.6285 82.4067 84.2559C84.2887 84.8832 86.3704 85.4536 88.6517 85.9668C90.933 86.4801 93.1857 87.0504 95.41 87.6778C97.6342 88.3052 99.6589 89.1606 101.484 90.2442C103.366 91.2708 104.82 92.6681 105.847 94.4361C106.93 96.2041 107.415 98.4854 107.301 101.28C107.187 103.96 106.275 106.242 104.564 108.124C102.853 110.006 100.571 111.46 97.7198 112.487C94.8682 113.513 91.6173 114.027 87.9673 114.027ZM130.146 113.855C126.382 113.855 123.216 113.086 120.65 111.546C118.084 110.006 116.144 107.896 114.833 105.215C113.578 102.478 112.951 99.3979 112.951 95.976C112.951 92.44 113.578 89.3317 114.833 86.6512C116.144 83.9137 118.084 81.775 120.65 80.2351C123.216 78.6953 126.41 77.9253 130.231 77.9253C135.82 77.9253 140.069 79.5793 142.978 82.8871C145.887 86.195 147.341 90.5579 147.341 95.976C147.341 99.3408 146.714 102.392 145.459 105.13C144.261 107.81 142.379 109.949 139.813 111.546C137.303 113.086 134.081 113.855 130.146 113.855ZM130.146 107.782C132.94 107.782 135.079 107.183 136.562 105.985C138.045 104.787 139.043 103.276 139.556 101.451C140.126 99.569 140.412 97.6584 140.412 95.7193C140.412 93.7802 140.126 91.8982 139.556 90.0731C139.043 88.1911 138.045 86.6512 136.562 85.4536C135.079 84.1989 132.94 83.5715 130.146 83.5715C127.465 83.5715 125.355 84.1989 123.815 85.4536C122.332 86.6512 121.306 88.1911 120.736 90.0731C120.165 91.8982 119.88 93.7802 119.88 95.7193C119.88 97.6584 120.165 99.569 120.736 101.451C121.306 103.276 122.332 104.787 123.815 105.985C125.355 107.183 127.465 107.782 130.146 107.782ZM153.829 113V78.0109H160.502L160.759 86.1379H160.93C160.987 85.7957 161.215 85.1969 161.614 84.3414C162.013 83.486 162.612 82.5734 163.411 81.6039C164.266 80.6344 165.35 79.8074 166.661 79.123C168.03 78.3816 169.741 78.0109 171.794 78.0109C173.79 78.0109 175.444 78.4101 176.756 79.2086C178.068 79.95 179.094 80.948 179.836 82.2027C180.634 83.4004 181.205 84.7121 181.547 86.1379H181.718C181.832 85.7957 182.117 85.1969 182.573 84.3414C183.03 83.486 183.685 82.5734 184.541 81.6039C185.453 80.5773 186.623 79.7218 188.048 79.0375C189.474 78.3531 191.214 78.0109 193.267 78.0109C195.491 78.0109 197.316 78.4671 198.742 79.3796C200.225 80.2922 201.394 81.4898 202.249 82.9727C203.105 84.3985 203.732 85.9383 204.131 87.5923C204.531 89.1891 204.787 90.729 204.901 92.2118C205.015 93.6947 205.072 94.9209 205.072 95.8904V113H198.143V95.8049C198.143 94.8923 198.086 93.8087 197.972 92.554C197.915 91.2423 197.658 89.9591 197.202 88.7044C196.803 87.4497 196.118 86.4231 195.149 85.6246C194.179 84.7692 192.811 84.3414 191.043 84.3414C188.989 84.3414 187.364 84.9117 186.166 86.0524C184.969 87.193 184.113 88.6759 183.6 90.5009C183.144 92.3259 182.916 94.265 182.916 96.3181V113H175.986V95.8049C175.986 94.8923 175.929 93.8087 175.815 92.554C175.758 91.2423 175.501 89.9591 175.045 88.7044C174.646 87.4497 173.961 86.4231 172.992 85.6246C172.022 84.7692 170.654 84.3414 168.886 84.3414C166.832 84.3414 165.207 84.9117 164.009 86.0524C162.812 87.193 161.956 88.6759 161.443 90.5009C160.987 92.3259 160.759 94.265 160.759 96.3181V113H153.829ZM227.807 113.855C223.872 113.855 220.65 113 218.141 111.289C215.631 109.521 213.778 107.268 212.58 104.531C211.382 101.736 210.783 98.8561 210.783 95.8904C210.726 92.5255 211.354 89.4743 212.665 86.7368C214.034 83.9992 215.973 81.832 218.483 80.2351C221.049 78.6382 224.1 77.8398 227.636 77.8398C230.716 77.8398 233.454 78.5242 235.849 79.8929C238.244 81.2047 240.155 83.0867 241.581 85.5391C243.006 87.9344 243.776 90.786 243.89 94.0939C243.948 94.265 243.976 94.6072 243.976 95.1205C243.976 95.5767 243.976 95.976 243.976 96.3181H217.542C217.542 99.9682 218.426 102.82 220.194 104.873C222.019 106.869 224.528 107.867 227.722 107.867C230.117 107.867 232.142 107.268 233.796 106.071C235.507 104.816 236.562 103.162 236.961 101.109H243.89C243.548 103.504 242.693 105.671 241.324 107.61C239.955 109.55 238.13 111.089 235.849 112.23C233.568 113.314 230.887 113.855 227.807 113.855ZM217.798 92.8107H236.79C236.733 92.1833 236.562 91.3564 236.277 90.3298C236.049 89.3032 235.592 88.3052 234.908 87.3356C234.224 86.309 233.283 85.4536 232.085 84.7692C230.887 84.0848 229.347 83.7426 227.465 83.7426C225.754 83.7426 224.3 84.0278 223.102 84.5981C221.905 85.1684 220.935 85.9383 220.194 86.9079C219.452 87.8204 218.882 88.8184 218.483 89.902C218.141 90.9286 217.912 91.8982 217.798 92.8107ZM260.917 113C258.522 113 256.754 112.373 255.613 111.118C254.473 109.863 253.902 107.953 253.902 105.386V82.2883H260.661V107.354H268.788V113H260.917ZM248.513 83.1438V78.0109C249.824 78.0109 250.88 77.9253 251.678 77.7542C252.534 77.5831 253.161 77.2409 253.56 76.7277C254.016 76.1573 254.33 75.2733 254.501 74.0757C254.672 72.821 254.758 71.1385 254.758 69.0283H260.661V78.0109H268.702V83.1438H248.513ZM276.146 113V64.8365H283.418V86.1379H283.589C283.646 85.9098 283.874 85.368 284.273 84.5125C284.672 83.657 285.3 82.7445 286.155 81.775C287.068 80.7484 288.265 79.8644 289.748 79.123C291.231 78.3816 293.113 78.0109 295.394 78.0109C297.847 78.0109 299.871 78.4101 301.468 79.2086C303.065 79.95 304.32 80.9765 305.232 82.2883C306.202 83.6 306.915 85.0543 307.371 86.6512C307.827 88.2481 308.113 89.845 308.227 91.4419C308.398 93.0388 308.483 94.5216 308.483 95.8904V113H301.554V95.8049C301.554 93.6376 301.326 91.6986 300.869 89.9876C300.413 88.2196 299.586 86.8508 298.389 85.8813C297.191 84.8547 295.394 84.3414 292.999 84.3414C290.604 84.3414 288.693 84.9117 287.267 86.0524C285.899 87.193 284.901 88.6759 284.273 90.5009C283.703 92.2689 283.418 94.208 283.418 96.3181V113H276.146ZM316.68 113V78.0109H323.781V113H316.68ZM320.273 73.1346C318.62 73.1346 317.479 72.7069 316.852 71.8514C316.281 70.9959 315.996 69.9979 315.996 68.8572C315.996 67.7736 316.281 66.8326 316.852 66.0342C317.479 65.1787 318.62 64.7509 320.273 64.7509C321.927 64.7509 323.011 65.1787 323.524 66.0342C324.095 66.8326 324.38 67.7736 324.38 68.8572C324.38 69.9979 324.095 70.9959 323.524 71.8514C323.011 72.7069 321.927 73.1346 320.273 73.1346ZM331.274 113V78.0109H337.348L338.546 86.1379H338.717C338.774 85.9098 339.002 85.368 339.401 84.5125C339.801 83.657 340.457 82.7445 341.369 81.775C342.282 80.7484 343.508 79.8644 345.048 79.123C346.587 78.3816 348.527 78.0109 350.865 78.0109C353.317 78.0109 355.313 78.4101 356.853 79.2086C358.45 79.95 359.705 80.9765 360.617 82.2883C361.587 83.543 362.271 84.9688 362.671 86.5657C363.07 88.1055 363.326 89.7024 363.44 91.3564C363.555 92.9533 363.612 94.4646 363.612 95.8904V113H356.682V95.8049C356.682 93.6376 356.454 91.6986 355.998 89.9876C355.542 88.2196 354.715 86.8508 353.517 85.8813C352.319 84.8547 350.523 84.3414 348.127 84.3414C345.732 84.3414 343.821 84.9117 342.396 86.0524C341.027 87.193 340.029 88.6759 339.401 90.5009C338.831 92.2689 338.546 94.208 338.546 96.3181V113H331.274ZM379.443 127.971V121.298H395.868V105.985H395.697C395.583 106.213 395.297 106.755 394.841 107.61C394.385 108.409 393.672 109.293 392.703 110.262C391.79 111.232 390.564 112.087 389.024 112.829C387.541 113.513 385.688 113.855 383.463 113.855C380.098 113.855 377.304 113.086 375.08 111.546C372.855 110.006 371.201 107.896 370.118 105.215C369.091 102.535 368.578 99.4549 368.578 95.976C368.578 92.3829 369.12 89.2462 370.203 86.5657C371.287 83.8281 372.941 81.718 375.165 80.2351C377.389 78.7523 380.184 78.0109 383.549 78.0109C385.83 78.0109 387.741 78.3816 389.281 79.123C390.82 79.8644 392.018 80.7484 392.874 81.775C393.786 82.8016 394.442 83.7426 394.841 84.5981C395.297 85.4536 395.554 85.9954 395.611 86.2235H395.782V78.0109H403.139V117.448C403.139 119.958 402.826 121.983 402.198 123.522C401.571 125.062 400.573 126.174 399.204 126.859C397.892 127.6 396.124 127.971 393.9 127.971H379.443ZM385.431 107.696C387.655 107.696 389.537 107.211 391.077 106.242C392.617 105.272 393.758 103.903 394.499 102.135C395.297 100.367 395.697 98.3143 395.697 95.976C395.697 93.6947 395.326 91.67 394.585 89.902C393.843 88.1341 392.731 86.7938 391.248 85.8813C389.822 84.9117 387.997 84.427 385.773 84.427C383.264 84.427 381.239 84.9688 379.699 86.0524C378.216 87.136 377.133 88.5618 376.448 90.3298C375.821 92.0978 375.507 93.9798 375.507 95.976C375.507 97.9721 375.793 99.8826 376.363 101.708C376.99 103.476 378.017 104.93 379.443 106.071C380.925 107.154 382.922 107.696 385.431 107.696ZM444.018 64.8365H451.803L435.378 113H423.486L407.061 64.8365H414.761L429.389 109.835L444.018 64.8365ZM469.497 113.855C465.562 113.855 462.34 113 459.83 111.289C457.321 109.521 455.467 107.268 454.27 104.531C453.072 101.736 452.473 98.8561 452.473 95.8904C452.416 92.5255 453.043 89.4743 454.355 86.7368C455.724 83.9992 457.663 81.832 460.172 80.2351C462.739 78.6382 465.79 77.8398 469.326 77.8398C472.406 77.8398 475.143 78.5242 477.539 79.8929C479.934 81.2047 481.845 83.0867 483.27 85.5391C484.696 87.9344 485.466 90.786 485.58 94.0939C485.637 94.265 485.666 94.6072 485.666 95.1205C485.666 95.5767 485.666 95.976 485.666 96.3181H459.231C459.231 99.9682 460.115 102.82 461.883 104.873C463.708 106.869 466.218 107.867 469.412 107.867C471.807 107.867 473.832 107.268 475.486 106.071C477.197 104.816 478.252 103.162 478.651 101.109H485.58C485.238 103.504 484.383 105.671 483.014 107.61C481.645 109.55 479.82 111.089 477.539 112.23C475.257 113.314 472.577 113.855 469.497 113.855ZM459.488 92.8107H478.48C478.423 92.1833 478.252 91.3564 477.966 90.3298C477.738 89.3032 477.282 88.3052 476.598 87.3356C475.913 86.309 474.972 85.4536 473.775 84.7692C472.577 84.0848 471.037 83.7426 469.155 83.7426C467.444 83.7426 465.99 84.0278 464.792 84.5981C463.594 85.1684 462.625 85.9383 461.883 86.9079C461.142 87.8204 460.572 88.8184 460.172 89.902C459.83 90.9286 459.602 91.8982 459.488 92.8107ZM501.666 127.971V121.298H518.091V105.985H517.92C517.806 106.213 517.521 106.755 517.065 107.61C516.608 108.409 515.895 109.293 514.926 110.262C514.013 111.232 512.787 112.087 511.247 112.829C509.764 113.513 507.911 113.855 505.687 113.855C502.322 113.855 499.527 113.086 497.303 111.546C495.079 110.006 493.425 107.896 492.341 105.215C491.315 102.535 490.801 99.4549 490.801 95.976C490.801 92.3829 491.343 89.2462 492.427 86.5657C493.51 83.8281 495.164 81.718 497.389 80.2351C499.613 78.7523 502.407 78.0109 505.772 78.0109C508.053 78.0109 509.964 78.3816 511.504 79.123C513.044 79.8644 514.241 80.7484 515.097 81.775C516.009 82.8016 516.665 83.7426 517.065 84.5981C517.521 85.4536 517.777 85.9954 517.834 86.2235H518.006V78.0109H525.363V117.448C525.363 119.958 525.049 121.983 524.422 123.522C523.794 125.062 522.796 126.174 521.427 126.859C520.116 127.6 518.348 127.971 516.124 127.971H501.666ZM507.654 107.696C509.879 107.696 511.761 107.211 513.3 106.242C514.84 105.272 515.981 103.903 516.722 102.135C517.521 100.367 517.92 98.3143 517.92 95.976C517.92 93.6947 517.549 91.67 516.808 89.902C516.066 88.1341 514.954 86.7938 513.472 85.8813C512.046 84.9117 510.221 84.427 507.996 84.427C505.487 84.427 503.462 84.9688 501.923 86.0524C500.44 87.136 499.356 88.5618 498.672 90.3298C498.044 92.0978 497.731 93.9798 497.731 95.976C497.731 97.9721 498.016 99.8826 498.586 101.708C499.214 103.476 500.24 104.93 501.666 106.071C503.149 107.154 505.145 107.696 507.654 107.696ZM544.427 113.77C541.233 113.77 538.609 113 536.556 111.46C534.56 109.92 533.077 107.81 532.108 105.13C531.195 102.449 530.739 99.3694 530.739 95.8904C530.739 92.2974 531.224 89.1606 532.193 86.4801C533.163 83.7426 534.646 81.6039 536.642 80.064C538.695 78.5242 541.29 77.7542 544.427 77.7542C546.366 77.7542 548.02 78.0394 549.388 78.6097C550.757 79.123 551.898 79.7789 552.81 80.5773C553.723 81.3758 554.464 82.2027 555.034 83.0582C555.605 83.8567 556.004 84.5696 556.232 85.1969H556.403V78.0109H563.675V113H557.601L556.403 106.755H556.232C556.004 107.382 555.605 108.095 555.034 108.894C554.464 109.692 553.694 110.462 552.725 111.203C551.812 111.945 550.672 112.544 549.303 113C547.934 113.513 546.309 113.77 544.427 113.77ZM547.25 107.696C549.531 107.696 551.327 107.211 552.639 106.242C553.951 105.215 554.892 103.818 555.462 102.05C556.033 100.282 556.318 98.2572 556.318 95.976C556.318 93.5236 556.004 91.4134 555.377 89.6454C554.806 87.8774 553.865 86.5372 552.554 85.6246C551.242 84.6551 549.474 84.1703 547.25 84.1703C544.911 84.1703 543.029 84.7121 541.603 85.7957C540.235 86.8223 539.237 88.2196 538.609 89.9876C538.039 91.7556 537.754 93.7232 537.754 95.8904C537.754 98.1147 538.039 100.139 538.609 101.964C539.237 103.732 540.235 105.13 541.603 106.156C543.029 107.183 544.911 107.696 547.25 107.696ZM569.957 113V78.0109H576.03L577.228 86.1379H577.399C577.456 85.9098 577.684 85.368 578.084 84.5125C578.483 83.657 579.139 82.7445 580.051 81.775C580.964 80.7484 582.19 79.8644 583.73 79.123C585.27 78.3816 587.209 78.0109 589.547 78.0109C591.999 78.0109 593.996 78.4101 595.535 79.2086C597.132 79.95 598.387 80.9765 599.3 82.2883C600.269 83.543 600.953 84.9688 601.353 86.5657C601.752 88.1055 602.009 89.7024 602.123 91.3564C602.237 92.9533 602.294 94.4646 602.294 95.8904V113H595.364V95.8049C595.364 93.6376 595.136 91.6986 594.68 89.9876C594.224 88.2196 593.397 86.8508 592.199 85.8813C591.001 84.8547 589.205 84.3414 586.81 84.3414C584.414 84.3414 582.504 84.9117 581.078 86.0524C579.709 87.193 578.711 88.6759 578.084 90.5009C577.513 92.2689 577.228 94.208 577.228 96.3181V113H569.957Z" fill="white"/>
</svg>
